<?xml version="1.0" standalone="no"?>
<!DOCTYPE svg PUBLIC "-//W3C//DTD SVG 20010904//EN"
 "http://www.w3.org/TR/2001/REC-SVG-20010904/DTD/svg10.dtd">
<svg version="1.0" xmlns="http://www.w3.org/2000/svg"
 width="500.000000pt" height="500.000000pt" viewBox="0 0 500.000000 500.000000"
 preserveAspectRatio="xMidYMid meet">
<metadata>
Created by potrace 1.14, written by Peter Selinger 2001-2017
</metadata>
<g transform="translate(0.000000,500.000000) scale(0.100000,-0.100000)"
fill="#000000" stroke="none">
<path d="M2210 4934 c-328 -39 -649 -143 -911 -294 -555 -321 -946 -804 -1138
-1403 -84 -263 -116 -507 -108 -811 13 -507 172 -972 470 -1376 87 -118 114
-149 241 -278 381 -389 924 -652 1468 -711 125 -14 411 -14 536 0 273 29 565
116 822 245 272 137 458 272 667 487 357 367 572 792 664 1314 27 152 37 471
19 637 -47 458 -234 919 -518 1281 -71 90 -307 326 -397 397 -448 352 -970
531 -1540 527 -88 -1 -212 -7 -275 -15z m342 -1942 c11 -11 20 -42 25 -86 l8
-68 24 86 23 86 53 0 52 0 5 -126 c7 -169 5 -174 -43 -174 -32 0 -39 3 -39 20
0 17 -7 20 -39 20 -29 0 -41 5 -44 18 -4 13 -5 12 -6 -5 0 -12 -13 -31 -28
-43 -34 -26 -89 -22 -115 10 -21 26 -38 26 -38 0 0 -16 -7 -20 -35 -20 -28 0
-35 4 -35 20 0 17 -7 20 -45 20 -44 0 -45 1 -44 33 0 17 13 75 28 127 l26 95
53 3 52 3 0 -100 c0 -61 4 -101 10 -101 6 0 10 32 10 76 0 82 10 110 43 124
29 13 78 4 99 -18z m49 -391 c37 -37 39 -42 39 -101 0 -59 -2 -64 -39 -101
-37 -37 -42 -39 -101 -39 -59 0 -64 2 -101 39 -37 37 -39 42 -39 101 0 59 2
64 39 101 37 37 42 39 101 39 59 0 64 -2 101 -39z m-97 -387 c13 -12 16 -39
16 -131 0 -144 -6 -153 -92 -153 l-58 0 0 150 0 150 59 0 c41 0 65 -5 75 -16z
m186 -104 c0 -67 -5 -130 -11 -144 -23 -50 -103 -57 -134 -13 -9 12 -15 44
-15 74 l0 53 35 0 c35 0 35 0 35 -45 0 -25 5 -45 10 -45 6 0 10 47 10 120 l0
120 35 0 35 0 0 -120z"/>
<path d="M2480 2860 c0 -53 4 -90 10 -90 6 0 10 37 10 90 0 53 -4 90 -10 90
-6 0 -10 -37 -10 -90z"/>
<path d="M2307 2861 c-4 -24 -5 -46 -2 -49 11 -11 16 8 13 49 l-3 44 -8 -44z"/>
<path d="M2648 2845 c-6 -30 -3 -43 8 -33 3 4 4 19 2 35 l-3 28 -7 -30z"/>
<path d="M2444 2080 c0 -52 1 -74 3 -47 2 26 2 68 0 95 -2 26 -3 4 -3 -48z"/>
</g>
</svg>
